<?xml version="1.0" encoding="UTF-8" standalone="no"?>
<svg>
<metadata>built for 'TbFr2007' braille table on Sun Dec 07 11:53:14 CET 2014</metadata>
<defs>
<font horiz-adv-x="610" id="Braille-TbFr2007" vert-adv-y="">
<font-face ascent="658" descent="-254" font-family="Braille" font-stretch="normal" font-weight="normal" units-per-em="1024"/>
<missing-glyph/>
<glyph d="M 75 583 m -18, 0 a 18,18 0 1,1 36,0 a 18,18 0 1,1 -36,0 z M 75 329 m -18, 0 a 18,18 0 1,1 36,0 a 18,18 0 1,1 -36,0 z M 75 75 m -18, 0 a 18,18 0 1,1 36,0 a 18,18 0 1,1 -36,0 z M 325 583 m -18, 0 a 18,18 0 1,1 36,0 a 18,18 0 1,1 -36,0 z M 325 329 m -18, 0 a 18,18 0 1,1 36,0 a 18,18 0 1,1 -36,0 z M 325 75 m -18, 0 a 18,18 0 1,1 36,0 a 18,18 0 1,1 -36,0 z " horiz-adv-x="610" unicode=" "/>
<glyph d="M 75 583 m -75, 0 a 75,75 0 1,1 150,0 a 75,75 0 1,1 -150,0 z M 75 329 m -18, 0 a 18,18 0 1,1 36,0 a 18,18 0 1,1 -36,0 z M 75 75 m -18, 0 a 18,18 0 1,1 36,0 a 18,18 0 1,1 -36,0 z M 325 583 m -18, 0 a 18,18 0 1,1 36,0 a 18,18 0 1,1 -36,0 z M 325 329 m -18, 0 a 18,18 0 1,1 36,0 a 18,18 0 1,1 -36,0 z M 325 75 m -18, 0 a 18,18 0 1,1 36,0 a 18,18 0 1,1 -36,0 z " horiz-adv-x="610" unicode="a"/>
<glyph d="M 75 583 m -18, 0 a 18,18 0 1,1 36,0 a 18,18 0 1,1 -36,0 z M 75 329 m -75, 0 a 75,75 0 1,1 150,0 a 75,75 0 1,1 -150,0 z M 75 75 m -18, 0 a 18,18 0 1,1 36,0 a 18,18 0 1,1 -36,0 z M 325 583 m -18, 0 a 18,18 0 1,1 36,0 a 18,18 0 1,1 -36,0 z M 325 329 m -18, 0 a 18,18 0 1,1 36,0 a 18,18 0 1,1 -36,0 z M 325 75 m -18, 0 a 18,18 0 1,1 36,0 a 18,18 0 1,1 -36,0 z " horiz-adv-x="610" unicode=","/>
<glyph d="M 75 583 m -75, 0 a 75,75 0 1,1 150,0 a 75,75 0 1,1 -150,0 z M 75 329 m -75, 0 a 75,75 0 1,1 150,0 a 75,75 0 1,1 -150,0 z M 75 75 m -18, 0 a 18,18 0 1,1 36,0 a 18,18 0 1,1 -36,0 z M 325 583 m -18, 0 a 18,18 0 1,1 36,0 a 18,18 0 1,1 -36,0 z M 325 329 m -18, 0 a 18,18 0 1,1 36,0 a 18,18 0 1,1 -36,0 z M 325 75 m -18, 0 a 18,18 0 1,1 36,0 a 18,18 0 1,1 -36,0 z " horiz-adv-x="610" unicode="b"/>
<glyph d="M 75 583 m -18, 0 a 18,18 0 1,1 36,0 a 18,18 0 1,1 -36,0 z M 75 329 m -18, 0 a 18,18 0 1,1 36,0 a 18,18 0 1,1 -36,0 z M 75 75 m -75, 0 a 75,75 0 1,1 150,0 a 75,75 0 1,1 -150,0 z M 325 583 m -18, 0 a 18,18 0 1,1 36,0 a 18,18 0 1,1 -36,0 z M 325 329 m -18, 0 a 18,18 0 1,1 36,0 a 18,18 0 1,1 -36,0 z M 325 75 m -18, 0 a 18,18 0 1,1 36,0 a 18,18 0 1,1 -36,0 z " horiz-adv-x="610" unicode="'"/>
<glyph d="M 75 583 m -75, 0 a 75,75 0 1,1 150,0 a 75,75 0 1,1 -150,0 z M 75 329 m -18, 0 a 18,18 0 1,1 36,0 a 18,18 0 1,1 -36,0 z M 75 75 m -75, 0 a 75,75 0 1,1 150,0 a 75,75 0 1,1 -150,0 z M 325 583 m -18, 0 a 18,18 0 1,1 36,0 a 18,18 0 1,1 -36,0 z M 325 329 m -18, 0 a 18,18 0 1,1 36,0 a 18,18 0 1,1 -36,0 z M 325 75 m -18, 0 a 18,18 0 1,1 36,0 a 18,18 0 1,1 -36,0 z " horiz-adv-x="610" unicode="k"/>
<glyph d="M 75 583 m -18, 0 a 18,18 0 1,1 36,0 a 18,18 0 1,1 -36,0 z M 75 329 m -75, 0 a 75,75 0 1,1 150,0 a 75,75 0 1,1 -150,0 z M 75 75 m -75, 0 a 75,75 0 1,1 150,0 a 75,75 0 1,1 -150,0 z M 325 583 m -18, 0 a 18,18 0 1,1 36,0 a 18,18 0 1,1 -36,0 z M 325 329 m -18, 0 a 18,18 0 1,1 36,0 a 18,18 0 1,1 -36,0 z M 325 75 m -18, 0 a 18,18 0 1,1 36,0 a 18,18 0 1,1 -36,0 z " horiz-adv-x="610" unicode=";"/>
<glyph d="M 75 583 m -75, 0 a 75,75 0 1,1 150,0 a 75,75 0 1,1 -150,0 z M 75 329 m -75, 0 a 75,75 0 1,1 150,0 a 75,75 0 1,1 -150,0 z M 75 75 m -75, 0 a 75,75 0 1,1 150,0 a 75,75 0 1,1 -150,0 z M 325 583 m -18, 0 a 18,18 0 1,1 36,0 a 18,18 0 1,1 -36,0 z M 325 329 m -18, 0 a 18,18 0 1,1 36,0 a 18,18 0 1,1 -36,0 z M 325 75 m -18, 0 a 18,18 0 1,1 36,0 a 18,18 0 1,1 -36,0 z " horiz-adv-x="610" unicode="l"/>
<glyph d="M 75 583 m -18, 0 a 18,18 0 1,1 36,0 a 18,18 0 1,1 -36,0 z M 75 329 m -18, 0 a 18,18 0 1,1 36,0 a 18,18 0 1,1 -36,0 z M 75 75 m -18, 0 a 18,18 0 1,1 36,0 a 18,18 0 1,1 -36,0 z M 325 583 m -75, 0 a 75,75 0 1,1 150,0 a 75,75 0 1,1 -150,0 z M 325 329 m -18, 0 a 18,18 0 1,1 36,0 a 18,18 0 1,1 -36,0 z M 325 75 m -18, 0 a 18,18 0 1,1 36,0 a 18,18 0 1,1 -36,0 z " horiz-adv-x="610" unicode="^"/>
<glyph d="M 75 583 m -75, 0 a 75,75 0 1,1 150,0 a 75,75 0 1,1 -150,0 z M 75 329 m -18, 0 a 18,18 0 1,1 36,0 a 18,18 0 1,1 -36,0 z M 75 75 m -18, 0 a 18,18 0 1,1 36,0 a 18,18 0 1,1 -36,0 z M 325 583 m -75, 0 a 75,75 0 1,1 150,0 a 75,75 0 1,1 -150,0 z M 325 329 m -18, 0 a 18,18 0 1,1 36,0 a 18,18 0 1,1 -36,0 z M 325 75 m -18, 0 a 18,18 0 1,1 36,0 a 18,18 0 1,1 -36,0 z " horiz-adv-x="610" unicode="c"/>
<glyph d="M 75 583 m -18, 0 a 18,18 0 1,1 36,0 a 18,18 0 1,1 -36,0 z M 75 329 m -75, 0 a 75,75 0 1,1 150,0 a 75,75 0 1,1 -150,0 z M 75 75 m -18, 0 a 18,18 0 1,1 36,0 a 18,18 0 1,1 -36,0 z M 325 583 m -75, 0 a 75,75 0 1,1 150,0 a 75,75 0 1,1 -150,0 z M 325 329 m -18, 0 a 18,18 0 1,1 36,0 a 18,18 0 1,1 -36,0 z M 325 75 m -18, 0 a 18,18 0 1,1 36,0 a 18,18 0 1,1 -36,0 z " horiz-adv-x="610" unicode="i"/>
<glyph d="M 75 583 m -75, 0 a 75,75 0 1,1 150,0 a 75,75 0 1,1 -150,0 z M 75 329 m -75, 0 a 75,75 0 1,1 150,0 a 75,75 0 1,1 -150,0 z M 75 75 m -18, 0 a 18,18 0 1,1 36,0 a 18,18 0 1,1 -36,0 z M 325 583 m -75, 0 a 75,75 0 1,1 150,0 a 75,75 0 1,1 -150,0 z M 325 329 m -18, 0 a 18,18 0 1,1 36,0 a 18,18 0 1,1 -36,0 z M 325 75 m -18, 0 a 18,18 0 1,1 36,0 a 18,18 0 1,1 -36,0 z " horiz-adv-x="610" unicode="f"/>
<glyph d="M 75 583 m -18, 0 a 18,18 0 1,1 36,0 a 18,18 0 1,1 -36,0 z M 75 329 m -18, 0 a 18,18 0 1,1 36,0 a 18,18 0 1,1 -36,0 z M 75 75 m -75, 0 a 75,75 0 1,1 150,0 a 75,75 0 1,1 -150,0 z M 325 583 m -75, 0 a 75,75 0 1,1 150,0 a 75,75 0 1,1 -150,0 z M 325 329 m -18, 0 a 18,18 0 1,1 36,0 a 18,18 0 1,1 -36,0 z M 325 75 m -18, 0 a 18,18 0 1,1 36,0 a 18,18 0 1,1 -36,0 z " horiz-adv-x="610" unicode="/"/>
<glyph d="M 75 583 m -75, 0 a 75,75 0 1,1 150,0 a 75,75 0 1,1 -150,0 z M 75 329 m -18, 0 a 18,18 0 1,1 36,0 a 18,18 0 1,1 -36,0 z M 75 75 m -75, 0 a 75,75 0 1,1 150,0 a 75,75 0 1,1 -150,0 z M 325 583 m -75, 0 a 75,75 0 1,1 150,0 a 75,75 0 1,1 -150,0 z M 325 329 m -18, 0 a 18,18 0 1,1 36,0 a 18,18 0 1,1 -36,0 z M 325 75 m -18, 0 a 18,18 0 1,1 36,0 a 18,18 0 1,1 -36,0 z " horiz-adv-x="610" unicode="m"/>
<glyph d="M 75 583 m -18, 0 a 18,18 0 1,1 36,0 a 18,18 0 1,1 -36,0 z M 75 329 m -75, 0 a 75,75 0 1,1 150,0 a 75,75 0 1,1 -150,0 z M 75 75 m -75, 0 a 75,75 0 1,1 150,0 a 75,75 0 1,1 -150,0 z M 325 583 m -75, 0 a 75,75 0 1,1 150,0 a 75,75 0 1,1 -150,0 z M 325 329 m -18, 0 a 18,18 0 1,1 36,0 a 18,18 0 1,1 -36,0 z M 325 75 m -18, 0 a 18,18 0 1,1 36,0 a 18,18 0 1,1 -36,0 z " horiz-adv-x="610" unicode="s"/>
<glyph d="M 75 583 m -75, 0 a 75,75 0 1,1 150,0 a 75,75 0 1,1 -150,0 z M 75 329 m -75, 0 a 75,75 0 1,1 150,0 a 75,75 0 1,1 -150,0 z M 75 75 m -75, 0 a 75,75 0 1,1 150,0 a 75,75 0 1,1 -150,0 z M 325 583 m -75, 0 a 75,75 0 1,1 150,0 a 75,75 0 1,1 -150,0 z M 325 329 m -18, 0 a 18,18 0 1,1 36,0 a 18,18 0 1,1 -36,0 z M 325 75 m -18, 0 a 18,18 0 1,1 36,0 a 18,18 0 1,1 -36,0 z " horiz-adv-x="610" unicode="p"/>
<glyph d="M 75 583 m -18, 0 a 18,18 0 1,1 36,0 a 18,18 0 1,1 -36,0 z M 75 329 m -18, 0 a 18,18 0 1,1 36,0 a 18,18 0 1,1 -36,0 z M 75 75 m -18, 0 a 18,18 0 1,1 36,0 a 18,18 0 1,1 -36,0 z M 325 583 m -18, 0 a 18,18 0 1,1 36,0 a 18,18 0 1,1 -36,0 z M 325 329 m -75, 0 a 75,75 0 1,1 150,0 a 75,75 0 1,1 -150,0 z M 325 75 m -18, 0 a 18,18 0 1,1 36,0 a 18,18 0 1,1 -36,0 z " horiz-adv-x="610" unicode="´"/>
<glyph d="M 75 583 m -75, 0 a 75,75 0 1,1 150,0 a 75,75 0 1,1 -150,0 z M 75 329 m -18, 0 a 18,18 0 1,1 36,0 a 18,18 0 1,1 -36,0 z M 75 75 m -18, 0 a 18,18 0 1,1 36,0 a 18,18 0 1,1 -36,0 z M 325 583 m -18, 0 a 18,18 0 1,1 36,0 a 18,18 0 1,1 -36,0 z M 325 329 m -75, 0 a 75,75 0 1,1 150,0 a 75,75 0 1,1 -150,0 z M 325 75 m -18, 0 a 18,18 0 1,1 36,0 a 18,18 0 1,1 -36,0 z " horiz-adv-x="610" unicode="e"/>
<glyph d="M 75 583 m -18, 0 a 18,18 0 1,1 36,0 a 18,18 0 1,1 -36,0 z M 75 329 m -75, 0 a 75,75 0 1,1 150,0 a 75,75 0 1,1 -150,0 z M 75 75 m -18, 0 a 18,18 0 1,1 36,0 a 18,18 0 1,1 -36,0 z M 325 583 m -18, 0 a 18,18 0 1,1 36,0 a 18,18 0 1,1 -36,0 z M 325 329 m -75, 0 a 75,75 0 1,1 150,0 a 75,75 0 1,1 -150,0 z M 325 75 m -18, 0 a 18,18 0 1,1 36,0 a 18,18 0 1,1 -36,0 z " horiz-adv-x="610" unicode=":"/>
<glyph d="M 75 583 m -75, 0 a 75,75 0 1,1 150,0 a 75,75 0 1,1 -150,0 z M 75 329 m -75, 0 a 75,75 0 1,1 150,0 a 75,75 0 1,1 -150,0 z M 75 75 m -18, 0 a 18,18 0 1,1 36,0 a 18,18 0 1,1 -36,0 z M 325 583 m -18, 0 a 18,18 0 1,1 36,0 a 18,18 0 1,1 -36,0 z M 325 329 m -75, 0 a 75,75 0 1,1 150,0 a 75,75 0 1,1 -150,0 z M 325 75 m -18, 0 a 18,18 0 1,1 36,0 a 18,18 0 1,1 -36,0 z " horiz-adv-x="610" unicode="h"/>
<glyph d="M 75 583 m -18, 0 a 18,18 0 1,1 36,0 a 18,18 0 1,1 -36,0 z M 75 329 m -18, 0 a 18,18 0 1,1 36,0 a 18,18 0 1,1 -36,0 z M 75 75 m -75, 0 a 75,75 0 1,1 150,0 a 75,75 0 1,1 -150,0 z M 325 583 m -18, 0 a 18,18 0 1,1 36,0 a 18,18 0 1,1 -36,0 z M 325 329 m -75, 0 a 75,75 0 1,1 150,0 a 75,75 0 1,1 -150,0 z M 325 75 m -18, 0 a 18,18 0 1,1 36,0 a 18,18 0 1,1 -36,0 z " horiz-adv-x="610" unicode="*"/>
<glyph d="M 75 583 m -75, 0 a 75,75 0 1,1 150,0 a 75,75 0 1,1 -150,0 z M 75 329 m -18, 0 a 18,18 0 1,1 36,0 a 18,18 0 1,1 -36,0 z M 75 75 m -75, 0 a 75,75 0 1,1 150,0 a 75,75 0 1,1 -150,0 z M 325 583 m -18, 0 a 18,18 0 1,1 36,0 a 18,18 0 1,1 -36,0 z M 325 329 m -75, 0 a 75,75 0 1,1 150,0 a 75,75 0 1,1 -150,0 z M 325 75 m -18, 0 a 18,18 0 1,1 36,0 a 18,18 0 1,1 -36,0 z " horiz-adv-x="610" unicode="o"/>
<glyph d="M 75 583 m -18, 0 a 18,18 0 1,1 36,0 a 18,18 0 1,1 -36,0 z M 75 329 m -75, 0 a 75,75 0 1,1 150,0 a 75,75 0 1,1 -150,0 z M 75 75 m -75, 0 a 75,75 0 1,1 150,0 a 75,75 0 1,1 -150,0 z M 325 583 m -18, 0 a 18,18 0 1,1 36,0 a 18,18 0 1,1 -36,0 z M 325 329 m -75, 0 a 75,75 0 1,1 150,0 a 75,75 0 1,1 -150,0 z M 325 75 m -18, 0 a 18,18 0 1,1 36,0 a 18,18 0 1,1 -36,0 z " horiz-adv-x="610" unicode="!"/>
<glyph d="M 75 583 m -75, 0 a 75,75 0 1,1 150,0 a 75,75 0 1,1 -150,0 z M 75 329 m -75, 0 a 75,75 0 1,1 150,0 a 75,75 0 1,1 -150,0 z M 75 75 m -75, 0 a 75,75 0 1,1 150,0 a 75,75 0 1,1 -150,0 z M 325 583 m -18, 0 a 18,18 0 1,1 36,0 a 18,18 0 1,1 -36,0 z M 325 329 m -75, 0 a 75,75 0 1,1 150,0 a 75,75 0 1,1 -150,0 z M 325 75 m -18, 0 a 18,18 0 1,1 36,0 a 18,18 0 1,1 -36,0 z " horiz-adv-x="610" unicode="r"/>
<glyph d="M 75 583 m -18, 0 a 18,18 0 1,1 36,0 a 18,18 0 1,1 -36,0 z M 75 329 m -18, 0 a 18,18 0 1,1 36,0 a 18,18 0 1,1 -36,0 z M 75 75 m -18, 0 a 18,18 0 1,1 36,0 a 18,18 0 1,1 -36,0 z M 325 583 m -75, 0 a 75,75 0 1,1 150,0 a 75,75 0 1,1 -150,0 z M 325 329 m -75, 0 a 75,75 0 1,1 150,0 a 75,75 0 1,1 -150,0 z M 325 75 m -18, 0 a 18,18 0 1,1 36,0 a 18,18 0 1,1 -36,0 z " horiz-adv-x="610" unicode="¤"/>
<glyph d="M 75 583 m -75, 0 a 75,75 0 1,1 150,0 a 75,75 0 1,1 -150,0 z M 75 329 m -18, 0 a 18,18 0 1,1 36,0 a 18,18 0 1,1 -36,0 z M 75 75 m -18, 0 a 18,18 0 1,1 36,0 a 18,18 0 1,1 -36,0 z M 325 583 m -75, 0 a 75,75 0 1,1 150,0 a 75,75 0 1,1 -150,0 z M 325 329 m -75, 0 a 75,75 0 1,1 150,0 a 75,75 0 1,1 -150,0 z M 325 75 m -18, 0 a 18,18 0 1,1 36,0 a 18,18 0 1,1 -36,0 z " horiz-adv-x="610" unicode="d"/>
<glyph d="M 75 583 m -18, 0 a 18,18 0 1,1 36,0 a 18,18 0 1,1 -36,0 z M 75 329 m -75, 0 a 75,75 0 1,1 150,0 a 75,75 0 1,1 -150,0 z M 75 75 m -18, 0 a 18,18 0 1,1 36,0 a 18,18 0 1,1 -36,0 z M 325 583 m -75, 0 a 75,75 0 1,1 150,0 a 75,75 0 1,1 -150,0 z M 325 329 m -75, 0 a 75,75 0 1,1 150,0 a 75,75 0 1,1 -150,0 z M 325 75 m -18, 0 a 18,18 0 1,1 36,0 a 18,18 0 1,1 -36,0 z " horiz-adv-x="610" unicode="j"/>
<glyph d="M 75 583 m -75, 0 a 75,75 0 1,1 150,0 a 75,75 0 1,1 -150,0 z M 75 329 m -75, 0 a 75,75 0 1,1 150,0 a 75,75 0 1,1 -150,0 z M 75 75 m -18, 0 a 18,18 0 1,1 36,0 a 18,18 0 1,1 -36,0 z M 325 583 m -75, 0 a 75,75 0 1,1 150,0 a 75,75 0 1,1 -150,0 z M 325 329 m -75, 0 a 75,75 0 1,1 150,0 a 75,75 0 1,1 -150,0 z M 325 75 m -18, 0 a 18,18 0 1,1 36,0 a 18,18 0 1,1 -36,0 z " horiz-adv-x="610" unicode="g"/>
<glyph d="M 75 583 m -18, 0 a 18,18 0 1,1 36,0 a 18,18 0 1,1 -36,0 z M 75 329 m -18, 0 a 18,18 0 1,1 36,0 a 18,18 0 1,1 -36,0 z M 75 75 m -75, 0 a 75,75 0 1,1 150,0 a 75,75 0 1,1 -150,0 z M 325 583 m -75, 0 a 75,75 0 1,1 150,0 a 75,75 0 1,1 -150,0 z M 325 329 m -75, 0 a 75,75 0 1,1 150,0 a 75,75 0 1,1 -150,0 z M 325 75 m -18, 0 a 18,18 0 1,1 36,0 a 18,18 0 1,1 -36,0 z " horiz-adv-x="610" unicode="@"/>
<glyph d="M 75 583 m -75, 0 a 75,75 0 1,1 150,0 a 75,75 0 1,1 -150,0 z M 75 329 m -18, 0 a 18,18 0 1,1 36,0 a 18,18 0 1,1 -36,0 z M 75 75 m -75, 0 a 75,75 0 1,1 150,0 a 75,75 0 1,1 -150,0 z M 325 583 m -75, 0 a 75,75 0 1,1 150,0 a 75,75 0 1,1 -150,0 z M 325 329 m -75, 0 a 75,75 0 1,1 150,0 a 75,75 0 1,1 -150,0 z M 325 75 m -18, 0 a 18,18 0 1,1 36,0 a 18,18 0 1,1 -36,0 z " horiz-adv-x="610" unicode="n"/>
<glyph d="M 75 583 m -18, 0 a 18,18 0 1,1 36,0 a 18,18 0 1,1 -36,0 z M 75 329 m -75, 0 a 75,75 0 1,1 150,0 a 75,75 0 1,1 -150,0 z M 75 75 m -75, 0 a 75,75 0 1,1 150,0 a 75,75 0 1,1 -150,0 z M 325 583 m -75, 0 a 75,75 0 1,1 150,0 a 75,75 0 1,1 -150,0 z M 325 329 m -75, 0 a 75,75 0 1,1 150,0 a 75,75 0 1,1 -150,0 z M 325 75 m -18, 0 a 18,18 0 1,1 36,0 a 18,18 0 1,1 -36,0 z " horiz-adv-x="610" unicode="t"/>
<glyph d="M 75 583 m -75, 0 a 75,75 0 1,1 150,0 a 75,75 0 1,1 -150,0 z M 75 329 m -75, 0 a 75,75 0 1,1 150,0 a 75,75 0 1,1 -150,0 z M 75 75 m -75, 0 a 75,75 0 1,1 150,0 a 75,75 0 1,1 -150,0 z M 325 583 m -75, 0 a 75,75 0 1,1 150,0 a 75,75 0 1,1 -150,0 z M 325 329 m -75, 0 a 75,75 0 1,1 150,0 a 75,75 0 1,1 -150,0 z M 325 75 m -18, 0 a 18,18 0 1,1 36,0 a 18,18 0 1,1 -36,0 z " horiz-adv-x="610" unicode="q"/>
<glyph d="M 75 583 m -18, 0 a 18,18 0 1,1 36,0 a 18,18 0 1,1 -36,0 z M 75 329 m -18, 0 a 18,18 0 1,1 36,0 a 18,18 0 1,1 -36,0 z M 75 75 m -18, 0 a 18,18 0 1,1 36,0 a 18,18 0 1,1 -36,0 z M 325 583 m -18, 0 a 18,18 0 1,1 36,0 a 18,18 0 1,1 -36,0 z M 325 329 m -18, 0 a 18,18 0 1,1 36,0 a 18,18 0 1,1 -36,0 z M 325 75 m -75, 0 a 75,75 0 1,1 150,0 a 75,75 0 1,1 -150,0 z " horiz-adv-x="610" unicode="`"/>
<glyph d="M 75 583 m -75, 0 a 75,75 0 1,1 150,0 a 75,75 0 1,1 -150,0 z M 75 329 m -18, 0 a 18,18 0 1,1 36,0 a 18,18 0 1,1 -36,0 z M 75 75 m -18, 0 a 18,18 0 1,1 36,0 a 18,18 0 1,1 -36,0 z M 325 583 m -18, 0 a 18,18 0 1,1 36,0 a 18,18 0 1,1 -36,0 z M 325 329 m -18, 0 a 18,18 0 1,1 36,0 a 18,18 0 1,1 -36,0 z M 325 75 m -75, 0 a 75,75 0 1,1 150,0 a 75,75 0 1,1 -150,0 z " horiz-adv-x="610" unicode="1"/>
<glyph d="M 75 583 m -18, 0 a 18,18 0 1,1 36,0 a 18,18 0 1,1 -36,0 z M 75 329 m -75, 0 a 75,75 0 1,1 150,0 a 75,75 0 1,1 -150,0 z M 75 75 m -18, 0 a 18,18 0 1,1 36,0 a 18,18 0 1,1 -36,0 z M 325 583 m -18, 0 a 18,18 0 1,1 36,0 a 18,18 0 1,1 -36,0 z M 325 329 m -18, 0 a 18,18 0 1,1 36,0 a 18,18 0 1,1 -36,0 z M 325 75 m -75, 0 a 75,75 0 1,1 150,0 a 75,75 0 1,1 -150,0 z " horiz-adv-x="610" unicode="?"/>
<glyph d="M 75 583 m -75, 0 a 75,75 0 1,1 150,0 a 75,75 0 1,1 -150,0 z M 75 329 m -75, 0 a 75,75 0 1,1 150,0 a 75,75 0 1,1 -150,0 z M 75 75 m -18, 0 a 18,18 0 1,1 36,0 a 18,18 0 1,1 -36,0 z M 325 583 m -18, 0 a 18,18 0 1,1 36,0 a 18,18 0 1,1 -36,0 z M 325 329 m -18, 0 a 18,18 0 1,1 36,0 a 18,18 0 1,1 -36,0 z M 325 75 m -75, 0 a 75,75 0 1,1 150,0 a 75,75 0 1,1 -150,0 z " horiz-adv-x="610" unicode="2"/>
<glyph d="M 75 583 m -18, 0 a 18,18 0 1,1 36,0 a 18,18 0 1,1 -36,0 z M 75 329 m -18, 0 a 18,18 0 1,1 36,0 a 18,18 0 1,1 -36,0 z M 75 75 m -75, 0 a 75,75 0 1,1 150,0 a 75,75 0 1,1 -150,0 z M 325 583 m -18, 0 a 18,18 0 1,1 36,0 a 18,18 0 1,1 -36,0 z M 325 329 m -18, 0 a 18,18 0 1,1 36,0 a 18,18 0 1,1 -36,0 z M 325 75 m -75, 0 a 75,75 0 1,1 150,0 a 75,75 0 1,1 -150,0 z " horiz-adv-x="610" unicode="-"/>
<glyph d="M 75 583 m -75, 0 a 75,75 0 1,1 150,0 a 75,75 0 1,1 -150,0 z M 75 329 m -18, 0 a 18,18 0 1,1 36,0 a 18,18 0 1,1 -36,0 z M 75 75 m -75, 0 a 75,75 0 1,1 150,0 a 75,75 0 1,1 -150,0 z M 325 583 m -18, 0 a 18,18 0 1,1 36,0 a 18,18 0 1,1 -36,0 z M 325 329 m -18, 0 a 18,18 0 1,1 36,0 a 18,18 0 1,1 -36,0 z M 325 75 m -75, 0 a 75,75 0 1,1 150,0 a 75,75 0 1,1 -150,0 z " horiz-adv-x="610" unicode="u"/>
<glyph d="M 75 583 m -18, 0 a 18,18 0 1,1 36,0 a 18,18 0 1,1 -36,0 z M 75 329 m -75, 0 a 75,75 0 1,1 150,0 a 75,75 0 1,1 -150,0 z M 75 75 m -75, 0 a 75,75 0 1,1 150,0 a 75,75 0 1,1 -150,0 z M 325 583 m -18, 0 a 18,18 0 1,1 36,0 a 18,18 0 1,1 -36,0 z M 325 329 m -18, 0 a 18,18 0 1,1 36,0 a 18,18 0 1,1 -36,0 z M 325 75 m -75, 0 a 75,75 0 1,1 150,0 a 75,75 0 1,1 -150,0 z " horiz-adv-x="610" unicode="("/>
<glyph d="M 75 583 m -75, 0 a 75,75 0 1,1 150,0 a 75,75 0 1,1 -150,0 z M 75 329 m -75, 0 a 75,75 0 1,1 150,0 a 75,75 0 1,1 -150,0 z M 75 75 m -75, 0 a 75,75 0 1,1 150,0 a 75,75 0 1,1 -150,0 z M 325 583 m -18, 0 a 18,18 0 1,1 36,0 a 18,18 0 1,1 -36,0 z M 325 329 m -18, 0 a 18,18 0 1,1 36,0 a 18,18 0 1,1 -36,0 z M 325 75 m -75, 0 a 75,75 0 1,1 150,0 a 75,75 0 1,1 -150,0 z " horiz-adv-x="610" unicode="v"/>
<glyph d="M 75 583 m -18, 0 a 18,18 0 1,1 36,0 a 18,18 0 1,1 -36,0 z M 75 329 m -18, 0 a 18,18 0 1,1 36,0 a 18,18 0 1,1 -36,0 z M 75 75 m -18, 0 a 18,18 0 1,1 36,0 a 18,18 0 1,1 -36,0 z M 325 583 m -75, 0 a 75,75 0 1,1 150,0 a 75,75 0 1,1 -150,0 z M 325 329 m -18, 0 a 18,18 0 1,1 36,0 a 18,18 0 1,1 -36,0 z M 325 75 m -75, 0 a 75,75 0 1,1 150,0 a 75,75 0 1,1 -150,0 z " horiz-adv-x="610" unicode="¨"/>
<glyph d="M 75 583 m -75, 0 a 75,75 0 1,1 150,0 a 75,75 0 1,1 -150,0 z M 75 329 m -18, 0 a 18,18 0 1,1 36,0 a 18,18 0 1,1 -36,0 z M 75 75 m -18, 0 a 18,18 0 1,1 36,0 a 18,18 0 1,1 -36,0 z M 325 583 m -75, 0 a 75,75 0 1,1 150,0 a 75,75 0 1,1 -150,0 z M 325 329 m -18, 0 a 18,18 0 1,1 36,0 a 18,18 0 1,1 -36,0 z M 325 75 m -75, 0 a 75,75 0 1,1 150,0 a 75,75 0 1,1 -150,0 z " horiz-adv-x="610" unicode="3"/>
<glyph d="M 75 583 m -18, 0 a 18,18 0 1,1 36,0 a 18,18 0 1,1 -36,0 z M 75 329 m -75, 0 a 75,75 0 1,1 150,0 a 75,75 0 1,1 -150,0 z M 75 75 m -18, 0 a 18,18 0 1,1 36,0 a 18,18 0 1,1 -36,0 z M 325 583 m -75, 0 a 75,75 0 1,1 150,0 a 75,75 0 1,1 -150,0 z M 325 329 m -18, 0 a 18,18 0 1,1 36,0 a 18,18 0 1,1 -36,0 z M 325 75 m -75, 0 a 75,75 0 1,1 150,0 a 75,75 0 1,1 -150,0 z " horiz-adv-x="610" unicode="9"/>
<glyph d="M 75 583 m -75, 0 a 75,75 0 1,1 150,0 a 75,75 0 1,1 -150,0 z M 75 329 m -75, 0 a 75,75 0 1,1 150,0 a 75,75 0 1,1 -150,0 z M 75 75 m -18, 0 a 18,18 0 1,1 36,0 a 18,18 0 1,1 -36,0 z M 325 583 m -75, 0 a 75,75 0 1,1 150,0 a 75,75 0 1,1 -150,0 z M 325 329 m -18, 0 a 18,18 0 1,1 36,0 a 18,18 0 1,1 -36,0 z M 325 75 m -75, 0 a 75,75 0 1,1 150,0 a 75,75 0 1,1 -150,0 z " horiz-adv-x="610" unicode="6"/>
<glyph d="M 75 583 m -18, 0 a 18,18 0 1,1 36,0 a 18,18 0 1,1 -36,0 z M 75 329 m -18, 0 a 18,18 0 1,1 36,0 a 18,18 0 1,1 -36,0 z M 75 75 m -75, 0 a 75,75 0 1,1 150,0 a 75,75 0 1,1 -150,0 z M 325 583 m -75, 0 a 75,75 0 1,1 150,0 a 75,75 0 1,1 -150,0 z M 325 329 m -18, 0 a 18,18 0 1,1 36,0 a 18,18 0 1,1 -36,0 z M 325 75 m -75, 0 a 75,75 0 1,1 150,0 a 75,75 0 1,1 -150,0 z " horiz-adv-x="610" unicode="ó"/>
<glyph d="M 75 583 m -75, 0 a 75,75 0 1,1 150,0 a 75,75 0 1,1 -150,0 z M 75 329 m -18, 0 a 18,18 0 1,1 36,0 a 18,18 0 1,1 -36,0 z M 75 75 m -75, 0 a 75,75 0 1,1 150,0 a 75,75 0 1,1 -150,0 z M 325 583 m -75, 0 a 75,75 0 1,1 150,0 a 75,75 0 1,1 -150,0 z M 325 329 m -18, 0 a 18,18 0 1,1 36,0 a 18,18 0 1,1 -36,0 z M 325 75 m -75, 0 a 75,75 0 1,1 150,0 a 75,75 0 1,1 -150,0 z " horiz-adv-x="610" unicode="x"/>
<glyph d="M 75 583 m -18, 0 a 18,18 0 1,1 36,0 a 18,18 0 1,1 -36,0 z M 75 329 m -75, 0 a 75,75 0 1,1 150,0 a 75,75 0 1,1 -150,0 z M 75 75 m -75, 0 a 75,75 0 1,1 150,0 a 75,75 0 1,1 -150,0 z M 325 583 m -75, 0 a 75,75 0 1,1 150,0 a 75,75 0 1,1 -150,0 z M 325 329 m -18, 0 a 18,18 0 1,1 36,0 a 18,18 0 1,1 -36,0 z M 325 75 m -75, 0 a 75,75 0 1,1 150,0 a 75,75 0 1,1 -150,0 z " horiz-adv-x="610" unicode="è"/>
<glyph d="M 75 583 m -75, 0 a 75,75 0 1,1 150,0 a 75,75 0 1,1 -150,0 z M 75 329 m -75, 0 a 75,75 0 1,1 150,0 a 75,75 0 1,1 -150,0 z M 75 75 m -75, 0 a 75,75 0 1,1 150,0 a 75,75 0 1,1 -150,0 z M 325 583 m -75, 0 a 75,75 0 1,1 150,0 a 75,75 0 1,1 -150,0 z M 325 329 m -18, 0 a 18,18 0 1,1 36,0 a 18,18 0 1,1 -36,0 z M 325 75 m -75, 0 a 75,75 0 1,1 150,0 a 75,75 0 1,1 -150,0 z " horiz-adv-x="610" unicode="ç"/>
<glyph d="M 75 583 m -18, 0 a 18,18 0 1,1 36,0 a 18,18 0 1,1 -36,0 z M 75 329 m -18, 0 a 18,18 0 1,1 36,0 a 18,18 0 1,1 -36,0 z M 75 75 m -18, 0 a 18,18 0 1,1 36,0 a 18,18 0 1,1 -36,0 z M 325 583 m -18, 0 a 18,18 0 1,1 36,0 a 18,18 0 1,1 -36,0 z M 325 329 m -75, 0 a 75,75 0 1,1 150,0 a 75,75 0 1,1 -150,0 z M 325 75 m -75, 0 a 75,75 0 1,1 150,0 a 75,75 0 1,1 -150,0 z " horiz-adv-x="610" unicode="„"/>
<glyph d="M 75 583 m -75, 0 a 75,75 0 1,1 150,0 a 75,75 0 1,1 -150,0 z M 75 329 m -18, 0 a 18,18 0 1,1 36,0 a 18,18 0 1,1 -36,0 z M 75 75 m -18, 0 a 18,18 0 1,1 36,0 a 18,18 0 1,1 -36,0 z M 325 583 m -18, 0 a 18,18 0 1,1 36,0 a 18,18 0 1,1 -36,0 z M 325 329 m -75, 0 a 75,75 0 1,1 150,0 a 75,75 0 1,1 -150,0 z M 325 75 m -75, 0 a 75,75 0 1,1 150,0 a 75,75 0 1,1 -150,0 z " horiz-adv-x="610" unicode="5"/>
<glyph d="M 75 583 m -18, 0 a 18,18 0 1,1 36,0 a 18,18 0 1,1 -36,0 z M 75 329 m -75, 0 a 75,75 0 1,1 150,0 a 75,75 0 1,1 -150,0 z M 75 75 m -18, 0 a 18,18 0 1,1 36,0 a 18,18 0 1,1 -36,0 z M 325 583 m -18, 0 a 18,18 0 1,1 36,0 a 18,18 0 1,1 -36,0 z M 325 329 m -75, 0 a 75,75 0 1,1 150,0 a 75,75 0 1,1 -150,0 z M 325 75 m -75, 0 a 75,75 0 1,1 150,0 a 75,75 0 1,1 -150,0 z " horiz-adv-x="610" unicode="."/>
<glyph d="M 75 583 m -75, 0 a 75,75 0 1,1 150,0 a 75,75 0 1,1 -150,0 z M 75 329 m -75, 0 a 75,75 0 1,1 150,0 a 75,75 0 1,1 -150,0 z M 75 75 m -18, 0 a 18,18 0 1,1 36,0 a 18,18 0 1,1 -36,0 z M 325 583 m -18, 0 a 18,18 0 1,1 36,0 a 18,18 0 1,1 -36,0 z M 325 329 m -75, 0 a 75,75 0 1,1 150,0 a 75,75 0 1,1 -150,0 z M 325 75 m -75, 0 a 75,75 0 1,1 150,0 a 75,75 0 1,1 -150,0 z " horiz-adv-x="610" unicode="8"/>
<glyph d="M 75 583 m -18, 0 a 18,18 0 1,1 36,0 a 18,18 0 1,1 -36,0 z M 75 329 m -18, 0 a 18,18 0 1,1 36,0 a 18,18 0 1,1 -36,0 z M 75 75 m -75, 0 a 75,75 0 1,1 150,0 a 75,75 0 1,1 -150,0 z M 325 583 m -18, 0 a 18,18 0 1,1 36,0 a 18,18 0 1,1 -36,0 z M 325 329 m -75, 0 a 75,75 0 1,1 150,0 a 75,75 0 1,1 -150,0 z M 325 75 m -75, 0 a 75,75 0 1,1 150,0 a 75,75 0 1,1 -150,0 z " horiz-adv-x="610" unicode=")"/>
<glyph d="M 75 583 m -75, 0 a 75,75 0 1,1 150,0 a 75,75 0 1,1 -150,0 z M 75 329 m -18, 0 a 18,18 0 1,1 36,0 a 18,18 0 1,1 -36,0 z M 75 75 m -75, 0 a 75,75 0 1,1 150,0 a 75,75 0 1,1 -150,0 z M 325 583 m -18, 0 a 18,18 0 1,1 36,0 a 18,18 0 1,1 -36,0 z M 325 329 m -75, 0 a 75,75 0 1,1 150,0 a 75,75 0 1,1 -150,0 z M 325 75 m -75, 0 a 75,75 0 1,1 150,0 a 75,75 0 1,1 -150,0 z " horiz-adv-x="610" unicode="z"/>
<glyph d="M 75 583 m -18, 0 a 18,18 0 1,1 36,0 a 18,18 0 1,1 -36,0 z M 75 329 m -75, 0 a 75,75 0 1,1 150,0 a 75,75 0 1,1 -150,0 z M 75 75 m -75, 0 a 75,75 0 1,1 150,0 a 75,75 0 1,1 -150,0 z M 325 583 m -18, 0 a 18,18 0 1,1 36,0 a 18,18 0 1,1 -36,0 z M 325 329 m -75, 0 a 75,75 0 1,1 150,0 a 75,75 0 1,1 -150,0 z M 325 75 m -75, 0 a 75,75 0 1,1 150,0 a 75,75 0 1,1 -150,0 z " horiz-adv-x="610" unicode="&quot;"/>
<glyph d="M 75 583 m -75, 0 a 75,75 0 1,1 150,0 a 75,75 0 1,1 -150,0 z M 75 329 m -75, 0 a 75,75 0 1,1 150,0 a 75,75 0 1,1 -150,0 z M 75 75 m -75, 0 a 75,75 0 1,1 150,0 a 75,75 0 1,1 -150,0 z M 325 583 m -18, 0 a 18,18 0 1,1 36,0 a 18,18 0 1,1 -36,0 z M 325 329 m -75, 0 a 75,75 0 1,1 150,0 a 75,75 0 1,1 -150,0 z M 325 75 m -75, 0 a 75,75 0 1,1 150,0 a 75,75 0 1,1 -150,0 z " horiz-adv-x="610" unicode="à"/>
<glyph d="M 75 583 m -18, 0 a 18,18 0 1,1 36,0 a 18,18 0 1,1 -36,0 z M 75 329 m -18, 0 a 18,18 0 1,1 36,0 a 18,18 0 1,1 -36,0 z M 75 75 m -18, 0 a 18,18 0 1,1 36,0 a 18,18 0 1,1 -36,0 z M 325 583 m -75, 0 a 75,75 0 1,1 150,0 a 75,75 0 1,1 -150,0 z M 325 329 m -75, 0 a 75,75 0 1,1 150,0 a 75,75 0 1,1 -150,0 z M 325 75 m -75, 0 a 75,75 0 1,1 150,0 a 75,75 0 1,1 -150,0 z " horiz-adv-x="610" unicode="¸"/>
<glyph d="M 75 583 m -75, 0 a 75,75 0 1,1 150,0 a 75,75 0 1,1 -150,0 z M 75 329 m -18, 0 a 18,18 0 1,1 36,0 a 18,18 0 1,1 -36,0 z M 75 75 m -18, 0 a 18,18 0 1,1 36,0 a 18,18 0 1,1 -36,0 z M 325 583 m -75, 0 a 75,75 0 1,1 150,0 a 75,75 0 1,1 -150,0 z M 325 329 m -75, 0 a 75,75 0 1,1 150,0 a 75,75 0 1,1 -150,0 z M 325 75 m -75, 0 a 75,75 0 1,1 150,0 a 75,75 0 1,1 -150,0 z " horiz-adv-x="610" unicode="4"/>
<glyph d="M 75 583 m -18, 0 a 18,18 0 1,1 36,0 a 18,18 0 1,1 -36,0 z M 75 329 m -75, 0 a 75,75 0 1,1 150,0 a 75,75 0 1,1 -150,0 z M 75 75 m -18, 0 a 18,18 0 1,1 36,0 a 18,18 0 1,1 -36,0 z M 325 583 m -75, 0 a 75,75 0 1,1 150,0 a 75,75 0 1,1 -150,0 z M 325 329 m -75, 0 a 75,75 0 1,1 150,0 a 75,75 0 1,1 -150,0 z M 325 75 m -75, 0 a 75,75 0 1,1 150,0 a 75,75 0 1,1 -150,0 z " horiz-adv-x="610" unicode="w"/>
<glyph d="M 75 583 m -75, 0 a 75,75 0 1,1 150,0 a 75,75 0 1,1 -150,0 z M 75 329 m -75, 0 a 75,75 0 1,1 150,0 a 75,75 0 1,1 -150,0 z M 75 75 m -18, 0 a 18,18 0 1,1 36,0 a 18,18 0 1,1 -36,0 z M 325 583 m -75, 0 a 75,75 0 1,1 150,0 a 75,75 0 1,1 -150,0 z M 325 329 m -75, 0 a 75,75 0 1,1 150,0 a 75,75 0 1,1 -150,0 z M 325 75 m -75, 0 a 75,75 0 1,1 150,0 a 75,75 0 1,1 -150,0 z " horiz-adv-x="610" unicode="7"/>
<glyph d="M 75 583 m -18, 0 a 18,18 0 1,1 36,0 a 18,18 0 1,1 -36,0 z M 75 329 m -18, 0 a 18,18 0 1,1 36,0 a 18,18 0 1,1 -36,0 z M 75 75 m -75, 0 a 75,75 0 1,1 150,0 a 75,75 0 1,1 -150,0 z M 325 583 m -75, 0 a 75,75 0 1,1 150,0 a 75,75 0 1,1 -150,0 z M 325 329 m -75, 0 a 75,75 0 1,1 150,0 a 75,75 0 1,1 -150,0 z M 325 75 m -75, 0 a 75,75 0 1,1 150,0 a 75,75 0 1,1 -150,0 z " horiz-adv-x="610" unicode="0"/>
<glyph d="M 75 583 m -75, 0 a 75,75 0 1,1 150,0 a 75,75 0 1,1 -150,0 z M 75 329 m -18, 0 a 18,18 0 1,1 36,0 a 18,18 0 1,1 -36,0 z M 75 75 m -75, 0 a 75,75 0 1,1 150,0 a 75,75 0 1,1 -150,0 z M 325 583 m -75, 0 a 75,75 0 1,1 150,0 a 75,75 0 1,1 -150,0 z M 325 329 m -75, 0 a 75,75 0 1,1 150,0 a 75,75 0 1,1 -150,0 z M 325 75 m -75, 0 a 75,75 0 1,1 150,0 a 75,75 0 1,1 -150,0 z " horiz-adv-x="610" unicode="y"/>
<glyph d="M 75 583 m -18, 0 a 18,18 0 1,1 36,0 a 18,18 0 1,1 -36,0 z M 75 329 m -75, 0 a 75,75 0 1,1 150,0 a 75,75 0 1,1 -150,0 z M 75 75 m -75, 0 a 75,75 0 1,1 150,0 a 75,75 0 1,1 -150,0 z M 325 583 m -75, 0 a 75,75 0 1,1 150,0 a 75,75 0 1,1 -150,0 z M 325 329 m -75, 0 a 75,75 0 1,1 150,0 a 75,75 0 1,1 -150,0 z M 325 75 m -75, 0 a 75,75 0 1,1 150,0 a 75,75 0 1,1 -150,0 z " horiz-adv-x="610" unicode="ù"/>
<glyph d="M 75 583 m -75, 0 a 75,75 0 1,1 150,0 a 75,75 0 1,1 -150,0 z M 75 329 m -75, 0 a 75,75 0 1,1 150,0 a 75,75 0 1,1 -150,0 z M 75 75 m -75, 0 a 75,75 0 1,1 150,0 a 75,75 0 1,1 -150,0 z M 325 583 m -75, 0 a 75,75 0 1,1 150,0 a 75,75 0 1,1 -150,0 z M 325 329 m -75, 0 a 75,75 0 1,1 150,0 a 75,75 0 1,1 -150,0 z M 325 75 m -75, 0 a 75,75 0 1,1 150,0 a 75,75 0 1,1 -150,0 z " horiz-adv-x="610" unicode="é"/>
</font>
</defs>
</svg>
